<?xml version="1.0" encoding="UTF-8" standalone="no"?><!DOCTYPE svg PUBLIC "-//W3C//DTD SVG 1.1//EN" "http://www.w3.org/Graphics/SVG/1.1/DTD/svg11.dtd"><svg width="100%" height="100%" viewBox="0 0 1024 1024" version="1.1" xmlns="http://www.w3.org/2000/svg" xmlns:xlink="http://www.w3.org/1999/xlink" xml:space="preserve" xmlns:serif="http://www.serif.com/" style="fill-rule:evenodd;clip-rule:evenodd;stroke-linejoin:round;stroke-miterlimit:2;"><rect id="chip-away-favicon" x="0" y="0" width="1024" height="1024" style="fill:none;"/><g id="Layer-1" serif:id="Layer 1"><path d="M571.393,659.221l26.678,258.524l-172.142,0l26.678,-258.524c38.015,15.299 80.772,15.299 118.787,-0Zm-118.787,-294.443l-26.678,-258.524l172.142,0l-26.678,258.524c-38.015,-15.299 -80.772,-15.299 -118.787,0Zm-87.828,206.615l-258.524,26.678l-0,-172.142l258.524,26.678c-15.299,38.015 -15.299,80.772 0,118.787Zm294.443,-118.787l258.524,-26.678l0,172.142l-258.524,-26.678c15.299,-38.015 15.299,-80.772 -0,-118.787Zm-209.327,205.494l-163.938,201.666l-121.723,-121.723l201.666,-163.938c7.73,18.221 19.018,35.286 33.864,50.132c14.846,14.846 31.911,26.134 50.132,33.864Zm124.211,-292.201l163.938,-201.666l121.723,121.723l-201.666,163.938c-7.73,-18.221 -19.018,-35.286 -33.864,-50.132c-14.846,-14.846 -31.911,-26.134 -50.132,-33.864Zm-208.206,83.995l-201.666,-163.938l121.723,-121.723l163.938,201.666c-18.221,7.73 -35.286,19.018 -50.132,33.864c-14.846,14.846 -26.134,31.911 -33.864,50.132Zm292.201,124.211l201.666,163.938l-121.723,121.723l-163.938,-201.666c18.221,-7.73 35.286,-19.018 50.132,-33.864c14.846,-14.846 26.134,-31.911 33.864,-50.132Z" style="fill:url(#_Radial1);"/><path d="M437.46,874.71c23.752,-41.14 76.436,-55.256 117.575,-31.504c41.14,23.752 55.256,76.436 31.504,117.575c-23.752,41.14 -76.436,55.256 -117.575,31.504c-41.14,-23.752 -55.256,-76.436 -31.504,-117.575Z" style="fill:url(#_Linear2);"/><path d="M437.46,63.219c23.752,-41.14 76.436,-55.256 117.575,-31.504c41.14,23.752 55.256,76.436 31.504,117.575c-23.752,41.14 -76.436,55.256 -117.575,31.504c-41.14,-23.752 -55.256,-76.436 -31.504,-117.575Z" style="fill:url(#_Linear3);"/><path d="M45.394,451.139c33.59,-33.59 88.132,-33.59 121.723,0c33.59,33.59 33.59,88.132 -0,121.723c-33.59,33.59 -88.132,33.59 -121.723,0c-33.59,-33.59 -33.59,-88.132 0,-121.723Z" style="fill:url(#_Linear4);"/><path d="M843.205,468.964c23.752,-41.14 76.436,-55.256 117.575,-31.504c41.14,23.752 55.256,76.436 31.504,117.575c-23.752,41.14 -76.436,55.256 -117.575,31.504c-41.14,-23.752 -55.256,-76.436 -31.504,-117.575Z" style="fill:url(#_Linear5);"/><path d="M164.234,738.044c33.59,-33.59 88.132,-33.59 121.723,0c33.59,33.59 33.59,88.132 0,121.723c-33.59,33.59 -88.132,33.59 -121.723,0c-33.59,-33.59 -33.59,-88.132 0,-121.723Z" style="fill:url(#_Linear6);"/><path d="M724.365,182.059c23.752,-41.14 76.436,-55.256 117.575,-31.504c41.14,23.752 55.256,76.436 31.504,117.575c-23.752,41.14 -76.436,55.256 -117.575,31.504c-41.14,-23.752 -55.256,-76.436 -31.504,-117.575Z" style="fill:url(#_Linear7);"/><path d="M164.234,164.234c33.59,-33.59 88.132,-33.59 121.723,0c33.59,33.59 33.59,88.132 0,121.723c-33.59,33.59 -88.132,33.59 -121.723,0c-33.59,-33.59 -33.59,-88.132 0,-121.723Z" style="fill:url(#_Linear8);"/><path d="M738.044,738.044c33.59,-33.59 88.132,-33.59 121.723,0c33.59,33.59 33.59,88.132 0,121.723c-33.59,33.59 -88.132,33.59 -121.723,0c-33.59,-33.59 -33.59,-88.132 0,-121.723Z" style="fill:url(#_Linear9);"/></g><g><path d="M1243.415,313.52c-73.703,114.403 -119.484,258.559 -119.484,376.214c-0,230.082 178.262,410.315 405.83,410.315c227.561,0 405.822,-180.233 405.822,-410.315c0,-117.655 -45.782,-261.811 -119.484,-376.214c-82.617,-128.241 -184.311,-198.871 -286.338,-198.871c-102.027,0 -203.721,70.629 -286.346,198.871Z" style="fill:url(#_Linear10);fill-rule:nonzero;"/></g><defs><radialGradient id="_Radial1" cx="0" cy="0" r="1" gradientUnits="userSpaceOnUse" gradientTransform="matrix(0,-404.893887,404.893887,0,512,511.148839)"><stop offset="0" style="stop-color:#8d96aa;stop-opacity:0.5"/><stop offset="1" style="stop-color:#84817a;stop-opacity:0"/></radialGradient><linearGradient id="_Linear2" x1="0" y1="0" x2="1" y2="0" gradientUnits="userSpaceOnUse" gradientTransform="matrix(-122.487123,-70.717974,70.717974,-122.487123,576.473049,954.96858)"><stop offset="0" style="stop-color:#2bcbba;stop-opacity:1"/><stop offset="1" style="stop-color:#59ddcf;stop-opacity:1"/></linearGradient><linearGradient id="_Linear3" x1="0" y1="0" x2="1" y2="0" gradientUnits="userSpaceOnUse" gradientTransform="matrix(-122.487123,-70.717974,70.717974,-122.487123,576.473049,143.478484)"><stop offset="0" style="stop-color:#fc5c65;stop-opacity:1"/><stop offset="1" style="stop-color:#fd7d85;stop-opacity:1"/></linearGradient><linearGradient id="_Linear4" x1="0" y1="0" x2="1" y2="0" gradientUnits="userSpaceOnUse" gradientTransform="matrix(-100.010317,-100.010317,100.010317,-100.010317,158.896976,564.642024)"><stop offset="0" style="stop-color:#fed330;stop-opacity:1"/><stop offset="1" style="stop-color:#fce384;stop-opacity:1"/></linearGradient><linearGradient id="_Linear5" x1="0" y1="0" x2="1" y2="0" gradientUnits="userSpaceOnUse" gradientTransform="matrix(-122.487123,-70.717974,70.717974,-122.487123,982.218097,549.223532)"><stop offset="0" style="stop-color:#a55eea;stop-opacity:1"/><stop offset="1" style="stop-color:#b37ee7;stop-opacity:1"/></linearGradient><linearGradient id="_Linear6" x1="0" y1="0" x2="1" y2="0" gradientUnits="userSpaceOnUse" gradientTransform="matrix(-100.010317,-100.010317,100.010317,-100.010317,277.736949,851.547099)"><stop offset="0" style="stop-color:#26de81;stop-opacity:1"/><stop offset="1" style="stop-color:#6ae8a8;stop-opacity:1"/></linearGradient><linearGradient id="_Linear7" x1="0" y1="0" x2="1" y2="0" gradientUnits="userSpaceOnUse" gradientTransform="matrix(-122.487123,-70.717974,70.717974,-122.487123,863.378124,262.318457)"><stop offset="0" style="stop-color:#d980fa;stop-opacity:1"/><stop offset="1" style="stop-color:#e5a1ff;stop-opacity:1"/></linearGradient><linearGradient id="_Linear8" x1="0" y1="0" x2="1" y2="0" gradientUnits="userSpaceOnUse" gradientTransform="matrix(-100.010317,-100.010317,100.010317,-100.010317,277.736949,277.736949)"><stop offset="0" style="stop-color:#fd9644;stop-opacity:1"/><stop offset="1" style="stop-color:#ffb77d;stop-opacity:1"/></linearGradient><linearGradient id="_Linear9" x1="0" y1="0" x2="1" y2="0" gradientUnits="userSpaceOnUse" gradientTransform="matrix(-100.010317,-100.010317,100.010317,-100.010317,851.547099,851.547099)"><stop offset="0" style="stop-color:#4b7bec;stop-opacity:1"/><stop offset="1" style="stop-color:#7ea4fc;stop-opacity:1"/></linearGradient><linearGradient id="_Linear10" x1="0" y1="0" x2="1" y2="0" gradientUnits="userSpaceOnUse" gradientTransform="matrix(470.339524,814.651937,-814.651937,470.339524,1277.092326,223.622198)"><stop offset="0" style="stop-color:#d9d0cb;stop-opacity:1"/><stop offset="0.77" style="stop-color:#95918d;stop-opacity:1"/><stop offset="1" style="stop-color:#827d73;stop-opacity:1"/></linearGradient></defs></svg>