<?xml version="1.0" encoding="UTF-8"?>
<svg id="Layer_1" data-name="Layer 1" xmlns="http://www.w3.org/2000/svg" xmlns:xlink="http://www.w3.org/1999/xlink" viewBox="0 0 1024 1024">
  <defs>
    <style>
      .cls-1 {
        fill: url(#linear-gradient-3);
      }

      .cls-2 {
        fill: url(#linear-gradient-2);
      }

      .cls-3 {
        fill: url(#linear-gradient);
      }
    </style>
    <linearGradient id="linear-gradient" x1="282.96" y1="113.79" x2="742.05" y2="908.96" gradientUnits="userSpaceOnUse">
      <stop offset="0" stop-color="#009e9e"/>
      <stop offset="1" stop-color="#00696a"/>
    </linearGradient>
    <linearGradient id="linear-gradient-2" x1="366.58" y1="125.77" x2="795.21" y2="868.19" gradientUnits="userSpaceOnUse">
      <stop offset="0" stop-color="#00d2d3"/>
      <stop offset="1" stop-color="#00696a"/>
    </linearGradient>
    <linearGradient id="linear-gradient-3" x1="469.14" y1="146.81" x2="867.39" y2="836.6" gradientUnits="userSpaceOnUse">
      <stop offset="0" stop-color="#33dbdc"/>
      <stop offset="1" stop-color="#009e9e"/>
    </linearGradient>
  </defs>
  <path class="cls-3" d="M889.77,279.37c-2.95-18.18-7.25-35.24-12.63-50.33-1.21-3.39-2.48-6.67-3.8-9.86-4.63-11.21-9.91-21.15-15.71-29.33-7.6-10.71-16.12-18.49-25.26-22.28l-4.77-1.98-82.91-34.45c-7.24-.93-14.62-1.41-22.12-1.41h-421.13c-94.85,0-171.74,76.89-171.74,171.74v421.09c0,94.85,76.89,171.74,171.74,171.74h421.13c7.5,0,14.88-.48,22.12-1.41l82.91-34.45,4.78-1.98c9.14-3.8,17.66-11.58,25.26-22.29,5.8-8.18,11.08-18.11,15.71-29.32,1.32-3.2,2.6-6.48,3.81-9.87,5.38-15.1,9.68-32.15,12.63-50.34,2.92-18.05,4.53-37.33,4.53-57.1v-351.06c0-19.77-1.61-39.05-4.53-57.09Z"/>
  <path class="cls-2" d="M892.65,301.96c-1.25-10.7-3.19-21.14-5.78-31.16-4.82-18.66-11.85-36.04-20.62-51.27-8.87-15.4-19.56-28.68-31.6-38.91-12.22-10.38-25.88-17.63-40.46-20.73l-310.28-65.99c-20.97-4.46-41.36-3.43-60.27,2.39-19.27,5.93-36.95,16.82-52.03,31.87-15.3,15.27-27.85,34.74-36.61,57.46-8.83,22.91-13.75,48.96-13.75,77.04v498.66c0,28.08,4.92,54.13,13.75,77.04,8.76,22.72,21.31,42.19,36.61,57.47,15.08,15.05,32.75,25.94,52.03,31.88,18.91,5.82,39.31,6.85,60.27,2.39l310.28-65.99c14.58-3.1,28.24-10.36,40.46-20.73,12.04-10.22,22.73-23.5,31.6-38.91,8.77-15.23,15.8-32.61,20.62-51.27,2.59-10.02,4.52-20.46,5.78-31.16,1.07-11.23,1.65-22.78,1.65-34.5v-351.06c0-11.73-.58-23.28-1.65-34.51Z"/>
  <path class="cls-1" d="M627.7,82.53l204.66,85.04c9.14,3.8,17.66,11.58,25.26,22.28,7.46,10.51,14.06,23.88,19.51,39.19,5.38,15.09,9.68,32.15,12.63,50.33,2.92,18.05,4.53,37.33,4.53,57.09v351.06c0,19.77-1.61,39.05-4.53,57.1-2.95,18.18-7.25,35.24-12.63,50.34s-12.06,28.68-19.51,39.19-16.12,18.49-25.26,22.29l-204.66,85.04c-14.57,6.05-28.84,6.43-42.15,1.73-13.66-4.82-26.25-14.95-37.06-29.66-11.02-15-20.1-34.67-26.47-58.05-6.43-23.65-10.02-50.86-10.02-80.48V248.98c0-29.62,3.59-56.84,10.02-80.48,6.36-23.38,15.44-43.04,26.47-58.04s23.41-24.84,37.06-29.66c13.32-4.7,27.58-4.32,42.15,1.74Z"/>
</svg>